<svg 
viewBox="0 0 48132000 48389000"
 >
 <g id="Слой_x0020_1">
  <g id="_2488895815392">
   <path fill="#BCBCBC" d="M10510000 27435000c-888000,757000 -1136000,321000 -2574000,249000 -1578000,2631000 -822000,1724000 -4023000,2330000 -1425000,270000 -2879000,1770000 -2724000,3752000 286000,3652000 1278000,1682000 -659000,5048000 -1415000,2461000 501000,1924000 66000,5177000 3937000,747000 1870000,1601000 6345000,592000 3097000,-698000 859000,-2401000 6287000,-2080000 911000,-1601000 1749000,-1611000 2286000,-2848000 162000,-373000 62000,-262000 212000,-721000 709000,-2163000 1180000,-1313000 3405000,-3000000 750000,-569000 1570000,-1458000 2344000,-1892000 -595000,-1221000 -1291000,-2036000 -1902000,-3170000 -715000,-1326000 -665000,-2475000 -1873000,-3256000 -3750000,-2426000 -5199000,276000 -7190000,-181000zm94000 -1067000l-27000 -1232000c2992000,-1319000 4265000,-2701000 7827000,-1108000 3335000,1491000 2867000,2838000 3594000,4426000 441000,964000 616000,965000 948000,1963000 5237000,-953000 2815000,768000 4853000,-208000 554000,-265000 1585000,-1092000 1769000,-1466000 634000,-1294000 -120000,-1397000 535000,-2672000 1060000,-2065000 6663000,-3279000 7848000,-4651000 1417000,-1642000 1458000,-8170000 1257000,-10715000 -326000,-4121000 396000,-5975000 -2152000,-10224000l-287000 -481000c-3333000,974000 -5160000,2779000 -11453000,2498000 -2048000,-91000 -4639000,-302000 -6031000,579000 -1018000,643000 -3318000,2507000 -3905000,3152000 -2528000,2775000 -4997000,3701000 -3330000,9421000 1438000,4931000 -1481000,4643000 -1747000,7561000 -97000,1059000 -138000,2439000 301000,3157000z"/>
   <path fill="#616161" d="M10604000 26368000l-94000 1067000c1991000,457000 3440000,-2245000 7190000,181000 1208000,781000 1158000,1930000 1873000,3256000 611000,1134000 1307000,1949000 1902000,3170000l381000 4761000c2899000,324000 8718000,-1927000 12426000,-2010000 4565000,-102000 4207000,836000 7931000,-2126000 1145000,-911000 1399000,-1765000 2389000,-2744000 2422000,-2394000 3817000,-1471000 3481000,-6788000 -262000,-4130000 -2502000,-2448000 -621000,-7335000 1397000,-3631000 -385000,-4139000 -751000,-5352000 -296000,-981000 161000,-990000 74000,-2027000 -182000,-2173000 -3655000,-2946000 -4222000,-5797000 -641000,-3231000 -2339000,-3859000 -5794000,-4624000l287000 481000c2548000,4249000 1826000,6103000 2152000,10224000 201000,2545000 160000,9073000 -1257000,10715000 -1185000,1372000 -6788000,2586000 -7848000,4651000 -655000,1275000 99000,1378000 -535000,2672000 -184000,374000 -1215000,1201000 -1769000,1466000 -2038000,976000 384000,-745000 -4853000,208000 -332000,-998000 -507000,-999000 -948000,-1963000 -727000,-1588000 -259000,-2935000 -3594000,-4426000 -3562000,-1593000 -4835000,-211000 -7827000,1108000l27000 1232000zm-10008000 17623000c891000,3893000 2104000,2399000 5123000,3629000 2680000,1093000 4684000,1032000 7212000,-253000 2221000,-1129000 7619000,408000 8925000,-8564000l-381000 -4761000c-774000,434000 -1594000,1323000 -2344000,1892000 -2225000,1687000 -2696000,837000 -3405000,3000000 -150000,459000 -50000,348000 -212000,721000 -537000,1237000 -1375000,1247000 -2286000,2848000 -5428000,-321000 -3190000,1382000 -6287000,2080000 -4475000,1009000 -2408000,155000 -6345000,-592000zm2835000 -4434000c442000,1343000 943000,1304000 1260000,2960000l2082000 -128000 1263000 -2357000 -3231000 -2037000c-992000,514000 -749000,435000 -1374000,1562000zm9386000 -2897000c794000,-842000 463000,-626000 915000,-1634000 356000,-793000 690000,-1222000 1051000,-1879000l-2741000 -2426000c-681000,-513000 -154000,-406000 -1148000,-772000 -1310000,608000 -979000,780000 -1738000,1781000 -742000,979000 -1525000,938000 -947000,2131000 364000,751000 3720000,2643000 4608000,2799000zm13168000 -22077000c43000,-1682000 -393000,-742000 -190000,-2172000 100000,-702000 536000,-915000 200000,-1740000 -494000,-1217000 -642000,-157000 -895000,-1597000 -131000,-749000 149000,-975000 2000,-1992000 -2499000,-448000 -4393000,520000 -6090000,1493000 -3226000,1848000 -1336000,3039000 -732000,5403000 298000,1166000 -145000,2280000 391000,3390000 523000,1084000 1534000,1367000 2656000,596000 643000,-443000 939000,-1132000 1971000,-1894000 1122000,-827000 1467000,-988000 2687000,-1487000zm3286000 7233000c2816000,47000 4006000,-1928000 3940000,-2770000 -351000,-1108000 -2190000,-1752000 -2964000,-2884000 -4714000,784000 -1915000,2836000 -1550000,3676000 219000,505000 372000,1386000 574000,1978000zm834000 -16047000c-501000,2127000 670000,4522000 1941000,5700000 537000,-131000 4059000,-2204000 4536000,-2678000 -499000,-1282000 -394000,-1637000 -1588000,-2308000 -2294000,-1289000 -902000,-666000 -2307000,-1773000l-2582000 1059000z"/>
  </g>
 </g>
</svg>
